<?xml version="1.0" encoding="UTF-8" standalone="no"?>
<svg width="24px" height="24px" viewBox="0 0 24 24" version="1.1" xmlns="http://www.w3.org/2000/svg" xmlns:xlink="http://www.w3.org/1999/xlink">
    <!-- Generator: Sketch 41.2 (35397) - http://www.bohemiancoding.com/sketch -->
    <title>ic-chartcontrol-zoom-IN</title>
    <desc>Created with Sketch.</desc>
    <defs></defs>
    <g id="UI" stroke="none" stroke-width="1" fill="none" fill-rule="evenodd">
        <g id="Chart-Interactivity-Controls" transform="translate(-284.000000, -915.000000)" fill="#FFFFFF">
            <g id="controls-V-4" transform="translate(80.000000, 904.000000)">
                <g id="ic-chartcontrol-zoom-in" transform="translate(208.000000, 14.000000)">
                    <path d="M7,8.8817842e-16 C10.8659932,4.4408921e-16 14,3.13400675 14,7 C14,8.57 13.5,10 12.61,11.19 L13.41,12 L14,12 L20,18 L18,20 L12,14 L12,13.41 L11.19,12.61 C10,13.5 8.57,14 7,14 C3.13400675,14 4.4408921e-16,10.8659932 0,7 C-4.4408921e-16,3.13400675 3.13400675,8.8817842e-16 7,0 L7,8.8817842e-16 Z M6,3 L6,6 L3,6 L3,8 L6,8 L6,11 L8,11 L8,8 L11,8 L11,6 L8,6 L8,3 L6,3 Z" id="Shape"></path>
                </g>
            </g>
        </g>
    </g>
</svg>